<svg xmlns="http://www.w3.org/2000/svg" viewBox="0 0 2560 1271" preserveAspectRatio="xMidYMid" width="2560" height="1271" xmlns:xlink="http://www.w3.org/1999/xlink" style="shape-rendering:auto;display:block;background-position-x:0%;background-position-y:0%;background-size:auto;background-origin:padding-box;background-clip:border-box;background:scroll rgb(255, 255, 255) none  repeat;width:2560px;height:1271px;;animation:none"><g><linearGradient y2="0" y1="0" x2="1" x1="0" id="lg-o578w6yh81n"><stop offset="0" stop-color="#ff00ff"></stop>

  
<stop offset="1" stop-color="#00ffff"></stop></linearGradient>
<path opacity="0.4" fill="url(#lg-o578w6yh81n)" d="M 0 0 L 0 860.07 Q 256 812.1 512 792.09 T 1024 606 T 1536 548.05 T 2048 635.2 T 2560 503.66 L 2560 0 Z" style="fill:url('#lg-o578w6yh81n');opacity:0.4;;animation:none"></path>
<path opacity="0.4" fill="url(#lg-o578w6yh81n)" d="M 0 0 L 0 794.62 Q 256 752.565 512 727.741 T 1024 635.493 T 1536 519.358 T 2048 415.147 T 2560 415.837 L 2560 0 Z" style="fill:url('#lg-o578w6yh81n');opacity:0.4;;animation:none"></path>
<path opacity="0.4" fill="url(#lg-o578w6yh81n)" d="M 0 0 L 0 814.768 Q 256 876.961 512 852.741 T 1024 569.164 T 1536 620.567 T 2048 481.212 T 2560 392.376 L 2560 0 Z" style="fill:url('#lg-o578w6yh81n');opacity:0.4;;animation:none"></path>
<path opacity="0.4" fill="url(#lg-o578w6yh81n)" d="M 0 0 L 0 869.454 Q 256 735.269 512 710.548 T 1024 742.345 T 1536 578.544 T 2048 630.156 T 2560 496.233 L 2560 0 Z" style="fill:url('#lg-o578w6yh81n');opacity:0.4;;animation:none"></path>
<path opacity="0.4" fill="url(#lg-o578w6yh81n)" d="M 0 0 L 0 909.947 Q 256 764.553 512 743.209 T 1024 625.981 T 1536 643.157 T 2048 405.194 T 2560 318.49 L 2560 0 Z" style="fill:url('#lg-o578w6yh81n');opacity:0.4;;animation:none"></path>
<g></g></g><!-- [ldio] generated by https://loading.io --></svg>